<?xml version="1.0" encoding="UTF-8"?>
<!DOCTYPE svg PUBLIC "-//W3C//DTD SVG 1.1//EN" "http://www.w3.org/Graphics/SVG/1.1/DTD/svg11.dtd">
<!-- Creator: CorelDRAW -->
<svg xmlns="http://www.w3.org/2000/svg" xml:space="preserve" width="11in" height="11in" version="1.1" style="shape-rendering:geometricPrecision; text-rendering:geometricPrecision; image-rendering:optimizeQuality; fill-rule:evenodd; clip-rule:evenodd"
viewBox="0 0 11000 11000"
 xmlns:xlink="http://www.w3.org/1999/xlink"
 xmlns:xodm="http://www.corel.com/coreldraw/odm/2003">
 <defs>
  <style type="text/css">
   <![CDATA[
    .str0 {stroke:#FEFEFE;stroke-width:333.33;stroke-miterlimit:2.61313}
    .str1 {stroke:#A7C4D2;stroke-width:6.94;stroke-miterlimit:2.61313}
    .fil1 {fill:#A7C4D2}
    .fil0 {fill:#373435;fill-rule:nonzero}
   ]]>
  </style>
 </defs>
 <g id="Layer_x0020_1">
  <metadata id="CorelCorpID_0Corel-Layer"/>
  <path class="fil0 str0" d="M4594.78 958.93c46.5,-153.76 143.68,-284.56 342.63,-352.81 68.59,-23.53 165.44,-33.15 271.44,-35.96 96.11,-2.55 200.16,0.35 295.24,3.02l3.88 0.06c63.73,1.82 123.69,3.47 177.26,3.25 354.66,-1.48 538.72,99.18 637.25,247.65 96.89,146.01 96.11,315.35 95.24,478.57l0 0c-1.32,248.63 -2.59,487.12 197.12,625.72 13.26,9.2 48.7,27.3 95.9,49.71 53.88,25.58 124.9,56.91 197.7,87.45 72.02,30.22 142.08,58.13 195.49,77.51 47.31,17.17 83.67,29.13 99.39,31.98 137.42,24.93 238.18,1.14 321.59,-48.14 92.01,-54.35 174.34,-145.09 259.14,-238.57 50.07,-55.19 101.33,-111.68 160.46,-162.05 66.84,-56.94 140.13,-102.32 224.85,-122.93 170.87,-41.56 309.86,-3.43 436.77,78.83 110.3,71.48 204.12,173.83 304.29,283.1 29.3,31.96 59.01,64.37 82.19,89.13 23.07,24.64 48.6,51.2 78.7,81.2 38.21,38.08 73.5,67.57 107.06,95.7 40.14,33.43 77.14,64.34 114.12,111.83 38.51,49.45 69.8,108.96 90.47,191.86 82.06,329.02 -112.78,504.94 -287.99,658.59l-7 6.04c-49.15,43.06 -96.78,84.77 -138.62,128.91 -37.37,39.42 -69.87,80.73 -94,126.99 -57.38,110.04 -69.34,200.02 -58.11,280.95 12.15,87.56 52.41,175.43 93.76,265.72 16.83,36.62 33.65,73.45 48.22,111.03 38.59,99.63 84.89,234.76 153.8,315.73 52.21,61.34 129.75,104.09 262.55,123.44 65.51,9.54 128.75,14.76 189.83,17.78 68.31,3.38 129.12,4.32 187.86,5.23 137.26,2.11 260.67,4.04 372.54,45.85 130.73,48.85 228.38,141.09 278.22,320.67 23.98,86.34 39.29,210.2 44.72,348.37 5.2,132.43 1.56,280.5 -12.05,422.44 -11.02,115.04 -27.13,222.17 -48.44,306.85 -23.26,92.39 -55.56,167.1 -98.24,212.78 -195.07,208.72 -417.63,199.86 -621.98,189.76l-6.52 -0.43c-116.32,-5.83 -227.85,-11.42 -324.48,11.27 -86.32,20.27 -168.54,66.37 -246.43,163.87 -9.86,12.35 -26.99,42.74 -47.86,83.32 -25.88,50.34 -56.24,115.21 -85.8,182.13 -31.65,71.66 -61.77,143.75 -83.85,200.99 -20.11,52.1 -34.59,93.17 -38.72,111.72 -30.74,138.06 -14.02,234.19 24.25,307.48 40.06,76.74 109.48,140.13 174.4,198.76 198.08,187.7 427.94,437.43 359.05,733.79 -44.31,190.67 -193.64,336.22 -376.79,514.73 -21.83,21.27 -44.07,42.96 -64.09,62.61 -21.87,21.47 -44.19,43.53 -67,66.37 -12.37,12.39 -24.43,24.97 -36.44,37.78 -6.43,6.85 -19.69,21.37 -33.19,36.17 -38.57,42.24 -79.78,87.34 -132.3,131.58 -57.5,48.44 -121.64,88.66 -195.77,108.78 -177.93,48.31 -325.58,7.78 -452.35,-71.07 -108.6,-67.67 -194.1,-159.31 -279.68,-252.91 -64.83,-70.92 -124.48,-136.16 -186.06,-181.21 -101.05,-73.93 -193,-91.23 -278.74,-80.98 -96.88,11.57 -196.78,57.47 -292.51,101.61 -26.71,8.94 -63.49,28.82 -91.71,40.29l-1.08 0.55 -50.79 20.11c-103.63,40.98 -200.68,79.37 -268.64,134.68 -61.56,50.09 -108.7,122.42 -132.2,241.05 -20.63,104.2 -16.13,214.44 -11.54,327.08l0.38 5.48c5.17,130.74 10.04,264.82 -28.94,384.11 -8.62,26.41 -18.68,50.43 -30,72.19 -11.73,22.53 -25.87,44.36 -42.15,65.45 -69.98,90.68 -171.17,152.05 -289.72,191.28 -123,40.71 -267.89,57.78 -414.7,59.83 -133.1,1.86 -264.9,-8.86 -384.17,-26.11 -148.34,-21.44 -280.46,-53.13 -373.5,-83.54 -15.92,-5.2 -32.65,-10.86 -49.72,-16.81 -25.25,-8.8 -44.81,-18.4 -57.61,-28.29 -186.13,-143.64 -186.13,-393.26 -186.13,-625.79l0.54 0c0,-232.01 0,-449.39 -161.98,-579.77 -5.74,-4.62 -34.81,-19.88 -77.17,-41 -62.05,-30.93 -131.17,-63.3 -194.18,-91.26 -69.15,-30.69 -140.75,-61.45 -199.58,-85.54 -47.54,-19.46 -85.57,-34.02 -104.11,-39.28 -155.48,-44.13 -266.41,-26.8 -356.11,22.53 -99.45,54.69 -186.65,153.01 -276.5,254.33l-5.52 6.42c-96.51,108.59 -197.4,220.3 -334,267.15 -96.49,33.09 -196.54,31.53 -296.41,5.38 -102.17,-26.74 -203.3,-79.76 -298.77,-146.58 -136.78,-95.73 -260.02,-215.32 -360.89,-330.2 -159.01,-181.1 -268.38,-361.1 -287.93,-417.83 -59.8,-173.5 -20.45,-323.57 60.51,-454.64 71.01,-114.98 169.66,-206.69 255.46,-286.45 0.14,-0.14 1.07,-1.21 1.18,-1.09 53.98,-50.18 103.77,-96.54 142.36,-141.75l16.5 -21.22c84.02,-108.04 107.25,-202.31 99.61,-290.69 -8.59,-99.34 -54.61,-204.24 -101.74,-311.7 -12.03,-27.43 -1.53,-2.53 -12.32,-27.59l-17.3 -41.18c-4.21,-10.07 -12.51,-30.76 -22.72,-56.46 -10.33,-25.98 -13.47,-34.11 -16.43,-41.78 -39.3,-101.8 -71.72,-185.81 -119.65,-243.1 -43.68,-52.2 -109.64,-91.7 -224.67,-119.54 -108.35,-26.21 -225.62,-21.88 -345.98,-17.43 -60.61,2.25 -122.02,4.52 -182.98,2.54 -66.89,-2.17 -131.48,-9.6 -190.43,-27.54 -399.57,-121.61 -391.09,-512.83 -382.12,-885.96l0.31 -3.26 0.03 -1.22c1.52,-61.89 3.02,-123.33 2.8,-184.4 -2.93,-765.77 383.89,-763.08 740.19,-759.88l0 0c127.83,1.15 252.67,2.28 359.12,-22 92.08,-21 175.11,-63.56 242.45,-149.2 8.05,-10.24 25.84,-43.3 48.6,-88.92 31.11,-62.34 63.85,-132.93 92.11,-198.02 27.86,-64.16 56.12,-133.07 79.35,-194.5 18.01,-47.6 30.89,-85.16 34.78,-103.54 26.7,-126.46 0.36,-231.21 -52.97,-325.61 -59.64,-105.57 -157.8,-207.93 -257.15,-311.53 -101.14,-105.47 -204.04,-212.79 -254.57,-348.43 -57.17,-153.52 -43.39,-319.3 114.46,-507.15 338.01,-402.26 583.09,-602.37 773.64,-681.56 234.04,-97.28 393.05,-35 529.54,79.69 62.2,52.27 123.76,116.99 185.86,182.22l2.32 2.66c66.81,70.42 134.19,141.42 209.58,204.25 197.51,164.59 401.13,74.81 587.84,-8.55l3.42 -1.68c26.64,-11.74 53,-23.5 83.88,-36.05 21.09,-8.57 10.81,-4.27 55.67,-22.36l15.23 -5.96 1.66 -0.32c102.01,-39.3 193.78,-74.74 257.8,-128.37 57.71,-48.35 100.98,-120.22 123.38,-241.87 7.6,-41.31 10.86,-84.78 11.91,-130.14 1.16,-49.5 -0.2,-102.57 -1.59,-157.52 -0.72,-28.22 13.48,-342.35 33.52,-406.7z"/>
  <circle class="fil1 str1" cx="5500" cy="5500" r="1716.04"/>
 </g>
</svg>
